<svg xmlns="http://www.w3.org/2000/svg" width="26" height="26" viewBox="0 0 26 26">
    <path fill="none" d="M0 0H26V26H0z"/>
    <path fill="#222" d="M2.728 22.641C.5 19.425-1.2 13.546 1.086 9.579A6.343 6.343 0 0 1 6.448 6.33c1.675-.03 3.258 1.128 4.281 1.128s2.945-1.391 4.964-1.187a6.055 6.055 0 0 1 4.741 2.567 5.871 5.871 0 0 0-2.8 4.937 5.72 5.72 0 0 0 3.479 5.242 14.247 14.247 0 0 1-1.8 3.688c-1.082 1.581-2.2 3.151-3.968 3.184-1.739.033-2.3-1.029-4.281-1.029s-2.607 1-4.249 1.062h-.089c-1.655.001-2.926-1.735-3.998-3.281zm7.8-16.666A5.426 5.426 0 0 1 11.9 1.964 5.823 5.823 0 0 1 15.72 0a5.715 5.715 0 0 1-1.35 4.14 4.916 4.916 0 0 1-3.583 1.845q-.131 0-.263-.01z" transform="translate(2)"/>
</svg>
