<svg version="1.1" id="레이어_1" xmlns="http://www.w3.org/2000/svg" x="0" y="0" viewBox="0 0 117 30" style="enable-background:new 0 0 117 30" xml:space="preserve"><style>.st0{stroke:#000;stroke-width:.0281;stroke-miterlimit:10}</style><path class="st0" d="M30.7 22.51h2c.98 0 1.63.57 1.63 1.81v.31c0 1.24-.66 1.81-1.63 1.81h-.89v3.11H30.7v-7.04zm1.09 2.93h.89c.35 0 .59-.22.59-.73v-.44c0-.51-.24-.73-.59-.73h-.89v1.9zM36.58 22.51h1.11v5.96h1.7v1.08h-2.81v-7.04zM51.1 22.51l-1.4 3.9v3.14h-1.1v-3.13l-1.38-3.91h1.15l.79 2.34h.04l.83-2.34h1.07zM55.67 24.72c.03-.15.04-.28.04-.41 0-.56-.18-.86-.71-.86-.56 0-.67.38-.67 1.03v3.38c0 .51.28.74.68.74.5 0 .69-.31.69-.75v-1.38h-.83v-1h1.85v2.41c0 1.06-.45 1.81-1.73 1.81-1.05 0-1.77-.61-1.77-1.93v-3.43c0-1.32.7-1.93 1.78-1.93 1.38 0 1.74.83 1.74 1.75 0 .2-.03.4-.05.59h-1.02zM62.88 29.44c-.12.13-.35.2-.59.2-.72 0-1-.46-1-1.36v-1.21c0-.38-.11-.54-.49-.54h-.59v3.03H59.1v-7.04h1.78c.96 0 1.5.48 1.5 1.62v.75c0 .7-.25 1.03-.64 1.21v.04c.4.12.57.37.57.93v1.41c0 .2.11.32.28.32.12 0 .2-.04.28-.11v.75zm-2.69-3.81h.65c.33 0 .55-.19.55-.62v-.77c0-.47-.23-.67-.57-.67h-.63v2.06zM64.98 27.75v-3.43c0-1.32.7-1.93 1.75-1.93 1.06 0 1.77.61 1.77 1.93v3.43c0 1.31-.7 1.93-1.77 1.93-1.04 0-1.75-.62-1.75-1.93zm2.41.08v-3.61c0-.52-.28-.77-.66-.77-.37 0-.65.25-.65.77v3.61c0 .52.28.76.65.76.38 0 .66-.24.66-.76zM76.76 29.55v-7.04h1.31l1.32 3.88h.04v-3.88h.97v7.04h-.87l-1.73-4.67h-.04v4.67h-1zM82.86 22.51h1.53c1.15 0 1.91.67 1.91 2.11v2.8c0 1.46-.75 2.12-1.91 2.12h-1.53v-7.03zm1.08 5.96h.45c.51 0 .8-.34.8-.99v-2.89c0-.64-.28-.99-.8-.99h-.45v4.87zM44.63 28.24l-1.37.3.03.98-1.01.22-.26-7.15 1.34-.29 2.71 6.61-1.08.24-.36-.91zm-1.43-.66 1.08-.24-1.18-2.98-.03.01.13 3.21zM71.37 22.33l1.09.17-.8 5.24c-.08.49.06.8.52.87.47.07.68-.18.75-.68l.8-5.23 1.07.16-.8 5.17c-.2 1.3-.95 1.8-2 1.64-1.08-.17-1.64-.87-1.44-2.17l.81-5.17z"/><g id="XMLID_00000074433832752417283560000009058612958106653856_"><path id="XMLID_00000000190322671786990940000014925085601982938811_" d="M38.69 13.54c-.18-.58-.42-.73-.8-.62-.16.04-.33.09-.42.09-.24 0-.27-.18-.27-.42V1.3c0-.66-.38-1.15-1.04-1.02l-1.79.33c-.66.13-1.02.38-1.02 1.02v11.29c0 2.28 1.17 3.46 3.39 3.46.6 0 1.26-.09 1.97-.47.38-.22.55-.4.35-1.02l-.37-1.35z"/><path id="XMLID_00000028291532930106184130000010643540598628896696_" d="M42.28 11.75a2.3 2.3 0 0 0 0 4.6c1.26 0 2.3-1.04 2.3-2.3 0-1.26-1.04-2.3-2.3-2.3z"/><path id="XMLID_00000101803064162404748420000006933174848829563037_" d="M66.29 4.73c-3.59 0-6.18 2.48-6.18 5.83s2.59 5.83 6.18 5.83 6.18-2.48 6.18-5.83-2.6-5.83-6.18-5.83zm0 8.37c-1.4 0-2.41-1.09-2.41-2.55S64.9 8 66.29 8c1.4 0 2.39 1.09 2.39 2.55s-1 2.55-2.39 2.55z"/><path id="XMLID_00000178172890033388603720000017960579984970188931_" d="M94.99 13.26c-.18-.58-.42-.73-.8-.62-.16.04-.33.09-.42.09-.24 0-.27-.18-.27-.42V9.57h-.02v-.01c0-2.95-1.9-4.83-4.65-4.83-1.55 0-2.77.6-3.63 1.48-.8-.95-1.97-1.48-3.43-1.48-1.64 0-2.79.78-3.54 1.84-.42-1.33-1.59-1.84-2.81-1.84-.51 0-1.2.13-1.66.38-.49.24-.58.53-.44 1.11l.31 1.46c.13.55.4.64.6.62.22-.02.51-.2.71-.2.16 0 .24.11.24.31v6.67c0 .64.35 1.02 1 1.02H78c.64 0 1-.38 1-1.02V9.85c0-1.13.69-1.86 1.73-1.86 1.06 0 1.68.73 1.68 1.86v5.23c0 .64.35 1.02 1 1.02h1.84c.64 0 1-.38 1-1.02V9.85c0-1.13.71-1.86 1.73-1.86 1.06 0 1.68.73 1.68 1.86v2.79c0 2.28 1.17 3.46 3.39 3.46.6 0 1.26-.09 1.97-.47.38-.22.55-.4.35-1.02l-.38-1.35z"/><path id="XMLID_00000014614969926474899510000010741468975468108441_" d="m116.92 14.61-.38-1.35c-.18-.58-.42-.73-.8-.62-.16.04-.33.09-.42.09-.24 0-.27-.18-.27-.42V9.57h-.02v-.01c0-2.95-1.9-4.83-4.65-4.83-1.55 0-2.77.6-3.63 1.48-.8-.95-1.97-1.48-3.43-1.48-1.64 0-2.79.78-3.54 1.84-.42-1.33-1.59-1.84-2.81-1.84-.51 0-1.2.13-1.66.38-.49.24-.58.53-.44 1.11l.31 1.46c.13.55.4.64.6.62.22-.02.51-.2.71-.2.16 0 .24.11.24.31v6.67c0 .64.35 1.02 1 1.02h1.84c.64 0 1-.38 1-1.02V9.85c0-1.13.69-1.86 1.73-1.86 1.06 0 1.68.73 1.68 1.86v5.23c0 .64.35 1.02 1 1.02h1.84c.64 0 1-.38 1-1.02V9.85c0-1.13.71-1.86 1.73-1.86 1.06 0 1.68.73 1.68 1.86v2.79c0 2.28 1.17 3.46 3.39 3.46.6 0 1.26-.09 1.97-.47.35-.23.53-.4.33-1.02z"/><path id="XMLID_00000152249204265192069140000002116968355342257828_" d="M31.11 13.26c-.18-.58-.42-.73-.8-.62-.16.04-.33.09-.42.09-.24 0-.27-.18-.27-.42v-6.5c0-.64-.38-1.02-1.02-1.02h-1.09c-.64 0-1 .38-1 1.02v.24c-.95-.82-2.15-1.33-3.54-1.33-3.21 0-5.54 2.55-5.54 5.83 0 3.28 2.35 5.83 5.54 5.83 1.44 0 2.6-.56 3.45-1.42.56.74 1.47 1.13 2.73 1.13.6 0 1.26-.09 1.97-.47.38-.22.55-.4.35-1.02l-.36-1.34zm-7.51-.16c-1.4 0-2.37-1.11-2.37-2.55 0-1.44.97-2.55 2.37-2.55 1.35 0 2.37 1 2.37 2.55 0 1.53-1.06 2.55-2.37 2.55z"/><path id="XMLID_00000085972159909883940860000009776947172822887581_" d="M8.43 1.7H2.16c-.51 0-1.2.13-1.66.38-.49.24-.58.52-.44 1.1l.31 1.46c.13.55.4.64.6.62.22-.02.51-.2.71-.2.16 0 .24.11.24.31v.94h.01v8.74c0 .66.38 1.04 1.04 1.04h5.47c4.67 0 7.57-2.88 7.57-7.22 0-4.3-2.9-7.17-7.58-7.17zm-.15 11.22H5.82V4.86h2.46c2.21 0 3.79 1.48 3.79 4.03 0 2.55-1.58 4.03-3.79 4.03z"/><path id="XMLID_00000143619221876157964460000008851440691505250991_" d="M59.35 13.46c-.16-.58-.38-.75-.86-.62-.27.07-.44.07-.58.04-.22-.04-.49-.27-1.17-1.22L54.35 8.3l4.72-5.56c.51-.6.15-1.04-.53-1.04h-2.5c-.69 0-1.02.4-1.51 1.02L50.7 7.26V2.74c0-.66-.38-1.04-1.04-1.04h-2.62c-.51 0-1.2.13-1.66.38-.49.24-.58.53-.44 1.11l.31 1.46c.13.55.4.64.6.62.22-.02.51-.2.71-.2.16 0 .24.11.24.31v9.67c0 .66.38 1.04 1.04 1.04h1.82c.66 0 1.04-.38 1.04-1.04v-3.52l.84-.95 1.64 2.28c.58.82 1.4 2.04 2.06 2.66.6.55 1.46.84 2.44.84.53 0 .93-.02 1.62-.35.35-.2.64-.44.44-1.11l-.39-1.44z"/></g></svg>