<?xml version="1.0" encoding="utf-8"?>
<!-- Generator: Adobe Illustrator 27.4.0, SVG Export Plug-In . SVG Version: 6.00 Build 0)  -->
<svg version="1.1" id="레이어_1" xmlns="http://www.w3.org/2000/svg" xmlns:xlink="http://www.w3.org/1999/xlink" x="0px"
	 y="0px" viewBox="0 0 117 30" style="enable-background:new 0 0 117 30;" xml:space="preserve">
<style type="text/css">
	.st0{stroke:#000000;stroke-width:0.0281;stroke-miterlimit:10;}
</style>
<g>
	<g>
		<path class="st0" d="M30.7,22.51h2c0.98,0,1.63,0.57,1.63,1.81v0.31c0,1.24-0.66,1.81-1.63,1.81h-0.89v3.11H30.7V22.51z
			 M31.79,25.44h0.89c0.35,0,0.59-0.22,0.59-0.73v-0.44c0-0.51-0.24-0.73-0.59-0.73h-0.89V25.44z"/>
		<path class="st0" d="M36.58,22.51h1.11v5.96h1.7v1.08h-2.81V22.51z"/>
		<path class="st0" d="M51.1,22.51l-1.4,3.9v3.14h-1.1v-3.13l-1.38-3.91h1.15l0.79,2.34h0.04l0.83-2.34H51.1z"/>
		<path class="st0" d="M55.67,24.72c0.03-0.15,0.04-0.28,0.04-0.41c0-0.56-0.18-0.86-0.71-0.86c-0.56,0-0.67,0.38-0.67,1.03v3.38
			c0,0.51,0.28,0.74,0.68,0.74c0.5,0,0.69-0.31,0.69-0.75v-1.38h-0.83v-1h1.85v2.41c0,1.06-0.45,1.81-1.73,1.81
			c-1.05,0-1.77-0.61-1.77-1.93v-3.43c0-1.32,0.7-1.93,1.78-1.93c1.38,0,1.74,0.83,1.74,1.75c0,0.2-0.03,0.4-0.05,0.59H55.67z"/>
		<path class="st0" d="M62.88,29.44c-0.12,0.13-0.35,0.2-0.59,0.2c-0.72,0-1-0.46-1-1.36v-1.21c0-0.38-0.11-0.54-0.49-0.54h-0.59
			v3.03h-1.11v-7.04h1.78c0.96,0,1.5,0.48,1.5,1.62v0.75c0,0.7-0.25,1.03-0.64,1.21v0.04c0.4,0.12,0.57,0.37,0.57,0.93v1.41
			c0,0.2,0.11,0.32,0.28,0.32c0.12,0,0.2-0.04,0.28-0.11V29.44z M60.19,25.63h0.65c0.33,0,0.55-0.19,0.55-0.62v-0.77
			c0-0.47-0.23-0.67-0.57-0.67h-0.63V25.63z"/>
		<path class="st0" d="M64.98,27.75v-3.43c0-1.32,0.7-1.93,1.75-1.93c1.06,0,1.77,0.61,1.77,1.93v3.43c0,1.31-0.7,1.93-1.77,1.93
			C65.69,29.68,64.98,29.06,64.98,27.75z M67.39,27.83v-3.61c0-0.52-0.28-0.77-0.66-0.77c-0.37,0-0.65,0.25-0.65,0.77v3.61
			c0,0.52,0.28,0.76,0.65,0.76C67.11,28.59,67.39,28.35,67.39,27.83z"/>
		<path class="st0" d="M76.76,29.55v-7.04h1.31l1.32,3.88h0.04v-3.88h0.97v7.04h-0.87l-1.73-4.67h-0.04v4.67H76.76z"/>
		<path class="st0" d="M82.86,22.51h1.53c1.15,0,1.91,0.67,1.91,2.11v2.8c0,1.46-0.75,2.12-1.91,2.12h-1.53V22.51z M83.94,28.47
			h0.45c0.51,0,0.8-0.34,0.8-0.99v-2.89c0-0.64-0.28-0.99-0.8-0.99h-0.45V28.47z"/>
		<path class="st0" d="M44.63,28.24l-1.37,0.3l0.03,0.98l-1.01,0.22l-0.26-7.15l1.34-0.29l2.71,6.61l-1.08,0.24L44.63,28.24z
			 M43.2,27.58l1.08-0.24l-1.18-2.98l-0.03,0.01L43.2,27.58z"/>
		<path class="st0" d="M71.37,22.33l1.09,0.17l-0.8,5.24c-0.08,0.49,0.06,0.8,0.52,0.87c0.47,0.07,0.68-0.18,0.75-0.68l0.8-5.23
			l1.07,0.16L74,28.03c-0.2,1.3-0.95,1.8-2,1.64c-1.08-0.17-1.64-0.87-1.44-2.17L71.37,22.33z"/>
	</g>
	<g id="XMLID_00000074433832752417283560000009058612958106653856_">
		<path id="XMLID_00000000190322671786990940000014925085601982938811_" d="M38.69,13.54c-0.18-0.58-0.42-0.73-0.8-0.62
			c-0.16,0.04-0.33,0.09-0.42,0.09c-0.24,0-0.27-0.18-0.27-0.42V1.3c0-0.66-0.38-1.15-1.04-1.02l-1.79,0.33
			c-0.66,0.13-1.02,0.38-1.02,1.02v11.29c0,2.28,1.17,3.46,3.39,3.46c0.6,0,1.26-0.09,1.97-0.47c0.38-0.22,0.55-0.4,0.35-1.02
			L38.69,13.54z"/>
		<path id="XMLID_00000028291532930106184130000010643540598628896696_" d="M42.28,11.75c-1.28,0-2.3,1.04-2.3,2.3
			c0,1.26,1.02,2.3,2.3,2.3c1.26,0,2.3-1.04,2.3-2.3C44.58,12.79,43.54,11.75,42.28,11.75z"/>
		<path id="XMLID_00000101803064162404748420000006933174848829563037_" d="M66.29,4.73c-3.59,0-6.18,2.48-6.18,5.83
			s2.59,5.83,6.18,5.83c3.59,0,6.18-2.48,6.18-5.83S69.87,4.73,66.29,4.73z M66.29,13.1c-1.4,0-2.41-1.09-2.41-2.55
			s1.02-2.55,2.41-2.55c1.4,0,2.39,1.09,2.39,2.55S67.68,13.1,66.29,13.1z"/>
		<path id="XMLID_00000178172890033388603720000017960579984970188931_" d="M94.99,13.26c-0.18-0.58-0.42-0.73-0.8-0.62
			c-0.16,0.04-0.33,0.09-0.42,0.09c-0.24,0-0.27-0.18-0.27-0.42V9.57h-0.02V9.56c0-2.95-1.9-4.83-4.65-4.83
			c-1.55,0-2.77,0.6-3.63,1.48c-0.8-0.95-1.97-1.48-3.43-1.48c-1.64,0-2.79,0.78-3.54,1.84c-0.42-1.33-1.59-1.84-2.81-1.84
			c-0.51,0-1.2,0.13-1.66,0.38c-0.49,0.24-0.58,0.53-0.44,1.11l0.31,1.46c0.13,0.55,0.4,0.64,0.6,0.62c0.22-0.02,0.51-0.2,0.71-0.2
			c0.16,0,0.24,0.11,0.24,0.31v6.67c0,0.64,0.35,1.02,1,1.02H78c0.64,0,1-0.38,1-1.02V9.85c0-1.13,0.69-1.86,1.73-1.86
			c1.06,0,1.68,0.73,1.68,1.86v5.23c0,0.64,0.35,1.02,1,1.02h1.84c0.64,0,1-0.38,1-1.02V9.85c0-1.13,0.71-1.86,1.73-1.86
			c1.06,0,1.68,0.73,1.68,1.86v2.06h0v0.73c0,2.28,1.17,3.46,3.39,3.46c0.6,0,1.26-0.09,1.97-0.47c0.38-0.22,0.55-0.4,0.35-1.02
			L94.99,13.26z"/>
		<path id="XMLID_00000014614969926474899510000010741468975468108441_" d="M116.92,14.61l-0.38-1.35c-0.18-0.58-0.42-0.73-0.8-0.62
			c-0.16,0.04-0.33,0.09-0.42,0.09c-0.24,0-0.27-0.18-0.27-0.42V9.57h-0.02V9.56c0-2.95-1.9-4.83-4.65-4.83
			c-1.55,0-2.77,0.6-3.63,1.48c-0.8-0.95-1.97-1.48-3.43-1.48c-1.64,0-2.79,0.78-3.54,1.84c-0.42-1.33-1.59-1.84-2.81-1.84
			c-0.51,0-1.2,0.13-1.66,0.38c-0.49,0.24-0.58,0.53-0.44,1.11l0.31,1.46c0.13,0.55,0.4,0.64,0.6,0.62c0.22-0.02,0.51-0.2,0.71-0.2
			c0.16,0,0.24,0.11,0.24,0.31v6.67c0,0.64,0.35,1.02,1,1.02h1.84c0.64,0,1-0.38,1-1.02V9.85c0-1.13,0.69-1.86,1.73-1.86
			c1.06,0,1.68,0.73,1.68,1.86v5.23c0,0.64,0.35,1.02,1,1.02h1.84c0.64,0,1-0.38,1-1.02V9.85c0-1.13,0.71-1.86,1.73-1.86
			c1.06,0,1.68,0.73,1.68,1.86v1.62h0v1.17c0,2.28,1.17,3.46,3.39,3.46c0.6,0,1.26-0.09,1.97-0.47
			C116.94,15.4,117.12,15.23,116.92,14.61z"/>
		<path id="XMLID_00000152249204265192069140000002116968355342257828_" d="M31.11,13.26c-0.18-0.58-0.42-0.73-0.8-0.62
			c-0.16,0.04-0.33,0.09-0.42,0.09c-0.24,0-0.27-0.18-0.27-0.42v-0.4h0V5.81c0-0.64-0.38-1.02-1.02-1.02h-1.09
			c-0.64,0-1,0.38-1,1.02v0.24c-0.95-0.82-2.15-1.33-3.54-1.33c-3.21,0-5.54,2.55-5.54,5.83c0,3.28,2.35,5.83,5.54,5.83
			c1.44,0,2.6-0.56,3.45-1.42c0.56,0.74,1.47,1.13,2.73,1.13c0.6,0,1.26-0.09,1.97-0.47c0.38-0.22,0.55-0.4,0.35-1.02L31.11,13.26z
			 M23.6,13.1c-1.4,0-2.37-1.11-2.37-2.55c0-1.44,0.97-2.55,2.37-2.55c1.35,0,2.37,1,2.37,2.55C25.97,12.08,24.91,13.1,23.6,13.1z"
			/>
		<path id="XMLID_00000085972159909883940860000009776947172822887581_" d="M8.43,1.7H2.96c-0.11,0-0.63,0-0.8,0
			c-0.51,0-1.2,0.13-1.66,0.38C0.01,2.32-0.08,2.6,0.06,3.18l0.31,1.46c0.13,0.55,0.4,0.64,0.6,0.62c0.22-0.02,0.51-0.2,0.71-0.2
			c0.16,0,0.24,0.11,0.24,0.31v0.94h0.01v8.74c0,0.66,0.38,1.04,1.04,1.04h5.47c4.67,0,7.57-2.88,7.57-7.22
			C16.01,4.57,13.11,1.7,8.43,1.7z M8.28,12.92H5.82V4.86h2.46c2.21,0,3.79,1.48,3.79,4.03C12.07,11.44,10.49,12.92,8.28,12.92z"/>
		<path id="XMLID_00000143619221876157964460000008851440691505250991_" d="M59.35,13.46c-0.16-0.58-0.38-0.75-0.86-0.62
			c-0.27,0.07-0.44,0.07-0.58,0.04c-0.22-0.04-0.49-0.27-1.17-1.22L54.35,8.3l4.72-5.56c0.51-0.6,0.15-1.04-0.53-1.04h-2.5
			c-0.69,0-1.02,0.4-1.51,1.02l-3.83,4.54V2.74c0-0.66-0.38-1.04-1.04-1.04h-1.82c-0.11,0-0.63,0-0.8,0c-0.51,0-1.2,0.13-1.66,0.38
			c-0.49,0.24-0.58,0.53-0.44,1.11l0.31,1.46c0.13,0.55,0.4,0.64,0.6,0.62c0.22-0.02,0.51-0.2,0.71-0.2c0.16,0,0.24,0.11,0.24,0.31
			v2h0v7.67c0,0.66,0.38,1.04,1.04,1.04h1.82c0.66,0,1.04-0.38,1.04-1.04v-3.52l0.84-0.95l1.64,2.28c0.58,0.82,1.4,2.04,2.06,2.66
			c0.6,0.55,1.46,0.84,2.44,0.84c0.53,0,0.93-0.02,1.62-0.35c0.35-0.2,0.64-0.44,0.44-1.11L59.35,13.46z"/>
	</g>
</g>
</svg>
