<svg width="20" height="18" viewBox="0 0 20 18" fill="none" xmlns="http://www.w3.org/2000/svg">
<path d="M0.6875 3.42188C0.300781 3.42188 0 3.12109 0 2.73438V1.01562C0 0.671875 0.300781 0.328125 0.6875 0.328125H18.5625C18.9062 0.328125 19.25 0.671875 19.25 1.01562V2.73438C19.25 3.12109 18.9062 3.42188 18.5625 3.42188H0.6875ZM0.6875 10.2969C0.300781 10.2969 0 9.99609 0 9.60938V7.89062C0 7.54688 0.300781 7.20312 0.6875 7.20312H18.5625C18.9062 7.20312 19.25 7.54688 19.25 7.89062V9.60938C19.25 9.99609 18.9062 10.2969 18.5625 10.2969H0.6875ZM0.6875 17.1719C0.300781 17.1719 0 16.8711 0 16.4844V14.7656C0 14.4219 0.300781 14.0781 0.6875 14.0781H18.5625C18.9062 14.0781 19.25 14.4219 19.25 14.7656V16.4844C19.25 16.8711 18.9062 17.1719 18.5625 17.1719H0.6875Z" fill="black"/>
</svg>
